<?xml version="1.0" encoding="iso-8859-1"?>
<!-- Generator: Adobe Illustrator 19.0.0, SVG Export Plug-In . SVG Version: 6.00 Build 0)  -->
<svg version="1.1" id="Capa_1" xmlns="http://www.w3.org/2000/svg" xmlns:xlink="http://www.w3.org/1999/xlink" x="0px" y="0px"
	 viewBox="0 0 513.109 513.109" style="enable-background:new 0 0 513.109 513.109;" xml:space="preserve">
<g>
	<path style="fill:#415A6B;" d="M92.288,420.309l-17.067,48c-6.4,17.067,3.2,36.267,20.267,42.667
		c3.2,1.067,7.467,2.133,10.667,2.133c10.667,0,21.333-5.333,27.733-14.933c17.067-26.667,43.733-50.133,77.867-68.267l-22.4-7.467
		H92.288V420.309z"/>
	<path style="fill:#415A6B;" d="M437.888,468.309l-17.067-46.933h-97.067l-22.4,7.467c34.133,18.133,59.733,40.533,77.867,68.267
		c6.4,9.6,17.067,14.933,27.733,14.933c3.2,0,7.467-1.067,10.667-2.133C434.688,503.509,444.288,485.375,437.888,468.309z"/>
</g>
<path style="fill:#344A5E;" d="M146.688,133.375l-18.133,18.133L25.088,34.175c-5.333-5.333-4.267-13.867,1.067-18.133
	s12.8-4.267,17.067,1.067L146.688,133.375z"/>
<path style="fill:#4ABAA5;" d="M165.888,32.042l-141.867,124.8c-34.133-39.467-30.933-99.2,8.533-133.333
	S131.754-7.425,165.888,32.042z"/>
<path style="fill:#344A5E;" d="M366.421,133.375l18.133,18.133l103.467-118.4c4.267-5.333,4.267-12.8-1.067-18.133
	c-5.333-4.267-12.8-4.267-18.133,1.067L366.421,133.375z"/>
<path style="fill:#4ABAA5;" d="M347.221,32.042l141.867,124.8c34.133-39.467,30.933-99.2-8.533-133.333
	S381.354-7.425,347.221,32.042z"/>
<ellipse style="fill:#66C6B9;" cx="256.554" cy="273.109" rx="229.333" ry="229.333"/>
<ellipse style="fill:#FFFFFF;" cx="256.554" cy="273.109" rx="182.4" ry="182.4"/>
<path style="fill:#F3705A;" d="M256.554,375.509c49.067-49.067,113.067-77.867,113.067-137.6c0-33.067-26.667-59.733-59.733-59.733
	c-23.467,0-43.733,13.867-53.333,34.133c-9.6-20.267-29.867-34.133-53.333-34.133c-33.067,0-59.733,26.667-59.733,59.733
	C143.488,298.709,210.688,326.442,256.554,375.509z"/>
<g>
	<path style="fill:#FFD15C;" d="M256.554,283.775c-6.4,0-10.667-5.333-10.667-10.667V149.375c0-6.4,5.333-10.667,10.667-10.667
		c6.4,0,10.667,5.333,10.667,10.667v122.667C267.221,278.442,262.954,283.775,256.554,283.775z"/>
	<path style="fill:#FFD15C;" d="M334.421,334.975l-65.067-65.067c0,7.467-7.467,16-17.067,13.867l67.2,66.133
		c4.267,4.267,11.733,4.267,16,0C338.688,346.709,338.688,340.309,334.421,334.975z"/>
</g>
<circle style="fill:#415A6B;" cx="256.554" cy="273.109" r="37.333"/>
<circle style="fill:#344A5E;" cx="256.554" cy="273.109" r="18.133"/>
<g>
	<circle style="fill:#E8EAE9;" cx="256.554" cy="116.309" r="10.667"/>
	<circle style="fill:#E8EAE9;" cx="144.554" cy="161.109" r="10.667"/>
	<circle style="fill:#E8EAE9;" cx="97.621" cy="272.042" r="10.667"/>
	<circle style="fill:#E8EAE9;" cx="143.488" cy="384.042" r="10.667"/>
	<circle style="fill:#E8EAE9;" cx="254.421" cy="430.975" r="10.667"/>
	<circle style="fill:#E8EAE9;" cx="366.421" cy="385.109" r="10.667"/>
	<circle style="fill:#E8EAE9;" cx="413.354" cy="274.175" r="10.667"/>
	<circle style="fill:#E8EAE9;" cx="367.488" cy="163.242" r="10.667"/>
</g>
<g>
</g>
<g>
</g>
<g>
</g>
<g>
</g>
<g>
</g>
<g>
</g>
<g>
</g>
<g>
</g>
<g>
</g>
<g>
</g>
<g>
</g>
<g>
</g>
<g>
</g>
<g>
</g>
<g>
</g>
</svg>
